<svg xmlns="http://www.w3.org/2000/svg" viewBox="0 0 64 64" role="img" aria-label="ChatterRax CR mark">
  <defs>
    <linearGradient id="bg" x1="0%" y1="0%" x2="100%" y2="100%">
      <stop offset="0%" stop-color="#84ffd6"/>
      <stop offset="100%" stop-color="#35d6ff"/>
    </linearGradient>
    <linearGradient id="stroke" x1="0%" y1="0%" x2="100%" y2="100%">
      <stop offset="0%" stop-color="#081120"/>
      <stop offset="100%" stop-color="#12284f"/>
    </linearGradient>
  </defs>
  <rect x="4" y="4" width="56" height="56" rx="18" fill="url(#bg)"/>
  <path d="M24 20h12c5.5 0 9 3.3 9 8.1 0 4.2-2.7 7-6.7 7.8l7.1 8.1H37l-6.2-7.4H24V20zm8.8 11.1c2.7 0 4.2-1 4.2-2.9 0-1.8-1.5-2.9-4.2-2.9H31v5.8h1.8z" fill="url(#stroke)"/>
  <path d="M22 45V20h-8.2c-6 0-9.8 5.1-9.8 12.3S7.8 45 13.8 45H22zm-8.2-6.5c-2.2 0-3.7-2.5-3.7-6.2s1.5-5.8 3.7-5.8H15v12z" fill="url(#stroke)"/>
</svg>
